<svg width="79" height="96" viewBox="0 0 79 96" fill="none" xmlns="http://www.w3.org/2000/svg">
<path d="M73.6514 24.5715C73.564 23.5359 72.6916 22.7424 71.6521 22.7525H56.4572V16.9943C56.4572 7.60839 48.848 0 39.4629 0C30.077 0 22.4686 7.60839 22.4686 16.9943V22.7525H7.27367C6.23886 22.7564 5.37509 23.5421 5.27434 24.5715L0.0362506 84.7919C-0.201951 87.584 0.741483 90.3487 2.6385 92.4128C4.53474 94.4762 7.20963 95.65 10.0126 95.6477H68.9327C71.7357 95.65 74.4106 94.4762 76.3068 92.4128C78.2038 90.3487 79.148 87.584 78.9098 84.7919L73.6514 24.5715ZM26.4672 16.9943C26.4672 9.81703 32.2856 3.99866 39.4629 3.99866C46.6402 3.99866 52.4585 9.81703 52.4585 16.9943V22.7525H26.4672V16.9943ZM73.3515 89.7098C72.2207 90.9547 70.6142 91.66 68.9327 91.649H9.99229C8.31082 91.6498 6.70667 90.9446 5.56955 89.7059C4.43322 88.4665 3.86856 86.8069 4.01461 85.1317L9.09259 26.7512H22.4686V39.2267C19.2533 40.2162 17.2453 43.4081 17.7459 46.7351C18.2458 50.0614 21.1042 52.5215 24.4679 52.5215C27.8316 52.5215 30.6893 50.0614 31.1899 46.7351C31.6897 43.4081 29.6818 40.2162 26.4672 39.2267V26.7309H52.4585V39.2267C49.2432 40.2162 47.2353 43.4081 47.7359 46.7351C48.2357 50.0614 51.0941 52.5215 54.4579 52.5215C57.8216 52.5215 60.6792 50.0614 61.1798 46.7351C61.6797 43.4081 59.6717 40.2162 56.4572 39.2267V26.7309H69.8129L74.8909 85.1114C75.0549 86.7936 74.4949 88.4657 73.3515 89.7098V89.7098ZM24.168 42.9458C24.3672 42.9723 24.5687 42.9723 24.7678 42.9458C26.2462 43.1051 27.3427 44.3937 27.2631 45.8784C27.1826 47.3638 25.9549 48.5275 24.4679 48.5275C22.9801 48.5275 21.7524 47.3638 21.6728 45.8784C21.5931 44.3937 22.6888 43.1051 24.168 42.9458ZM54.158 42.9458C54.3571 42.9723 54.5586 42.9723 54.7578 42.9458C56.2362 43.1051 57.3327 44.3937 57.253 45.8784C57.1726 47.3638 55.9449 48.5275 54.4579 48.5275C52.9701 48.5275 51.7424 47.3638 51.6627 45.8784C51.583 44.3937 52.6788 43.1051 54.158 42.9458V42.9458Z" fill="black"/>
<path d="M12.851 72.606C12.851 71.3333 13.1117 70.2063 13.633 69.225C14.1697 68.2437 14.8903 67.4847 15.795 66.948C16.715 66.396 17.727 66.12 18.831 66.12C19.8277 66.12 20.694 66.3193 21.43 66.718C22.1813 67.1013 22.7793 67.5843 23.224 68.167V66.327H25.869V79H23.224V77.114C22.7793 77.712 22.1737 78.2103 21.407 78.609C20.6403 79.0077 19.7663 79.207 18.785 79.207C17.6963 79.207 16.6997 78.931 15.795 78.379C14.8903 77.8117 14.1697 77.0297 13.633 76.033C13.1117 75.021 12.851 73.8787 12.851 72.606ZM23.224 72.652C23.224 71.778 23.04 71.019 22.672 70.375C22.3193 69.731 21.8517 69.2403 21.269 68.903C20.6863 68.5657 20.0577 68.397 19.383 68.397C18.7083 68.397 18.0797 68.5657 17.497 68.903C16.9143 69.225 16.439 69.708 16.071 70.352C15.7183 70.9807 15.542 71.732 15.542 72.606C15.542 73.48 15.7183 74.2467 16.071 74.906C16.439 75.5653 16.9143 76.0713 17.497 76.424C18.095 76.7613 18.7237 76.93 19.383 76.93C20.0577 76.93 20.6863 76.7613 21.269 76.424C21.8517 76.0867 22.3193 75.596 22.672 74.952C23.04 74.2927 23.224 73.526 23.224 72.652ZM35.7069 66.12C36.7036 66.12 37.5929 66.327 38.3749 66.741C39.1722 67.155 39.7932 67.7683 40.2379 68.581C40.6826 69.3937 40.9049 70.375 40.9049 71.525V79H38.3059V71.916C38.3059 70.7813 38.0222 69.915 37.4549 69.317C36.8876 68.7037 36.1132 68.397 35.1319 68.397C34.1506 68.397 33.3686 68.7037 32.7859 69.317C32.2186 69.915 31.9349 70.7813 31.9349 71.916V79H29.3129V66.327H31.9349V67.776C32.3642 67.2547 32.9086 66.8483 33.5679 66.557C34.2426 66.2657 34.9556 66.12 35.7069 66.12ZM43.3754 72.606C43.3754 71.3333 43.6361 70.2063 44.1574 69.225C44.6941 68.2437 45.4147 67.4847 46.3194 66.948C47.2394 66.396 48.2514 66.12 49.3554 66.12C50.3521 66.12 51.2184 66.3193 51.9544 66.718C52.7057 67.1013 53.3037 67.5843 53.7484 68.167V66.327H56.3934V79H53.7484V77.114C53.3037 77.712 52.6981 78.2103 51.9314 78.609C51.1647 79.0077 50.2907 79.207 49.3094 79.207C48.2207 79.207 47.2241 78.931 46.3194 78.379C45.4147 77.8117 44.6941 77.0297 44.1574 76.033C43.6361 75.021 43.3754 73.8787 43.3754 72.606ZM53.7484 72.652C53.7484 71.778 53.5644 71.019 53.1964 70.375C52.8437 69.731 52.3761 69.2403 51.7934 68.903C51.2107 68.5657 50.5821 68.397 49.9074 68.397C49.2327 68.397 48.6041 68.5657 48.0214 68.903C47.4387 69.225 46.9634 69.708 46.5954 70.352C46.2427 70.9807 46.0664 71.732 46.0664 72.606C46.0664 73.48 46.2427 74.2467 46.5954 74.906C46.9634 75.5653 47.4387 76.0713 48.0214 76.424C48.6194 76.7613 49.2481 76.93 49.9074 76.93C50.5821 76.93 51.2107 76.7613 51.7934 76.424C52.3761 76.0867 52.8437 75.596 53.1964 74.952C53.5644 74.2927 53.7484 73.526 53.7484 72.652ZM64.4373 79.207C63.4406 79.207 62.5436 79.0307 61.7463 78.678C60.9643 78.31 60.3433 77.8193 59.8833 77.206C59.4233 76.5773 59.178 75.8797 59.1473 75.113H61.8613C61.9073 75.6497 62.1603 76.102 62.6203 76.47C63.0956 76.8227 63.686 76.999 64.3913 76.999C65.1273 76.999 65.6946 76.861 66.0933 76.585C66.5073 76.2937 66.7143 75.9257 66.7143 75.481C66.7143 75.0057 66.4843 74.653 66.0243 74.423C65.5796 74.193 64.8666 73.94 63.8853 73.664C62.9346 73.4033 62.1603 73.1503 61.5623 72.905C60.9643 72.6597 60.443 72.284 59.9983 71.778C59.569 71.272 59.3543 70.605 59.3543 69.777C59.3543 69.1023 59.5536 68.489 59.9523 67.937C60.351 67.3697 60.9183 66.925 61.6543 66.603C62.4056 66.281 63.2643 66.12 64.2303 66.12C65.6716 66.12 66.8293 66.488 67.7033 67.224C68.5926 67.9447 69.068 68.9337 69.1293 70.191H66.5073C66.4613 69.6237 66.2313 69.1713 65.8173 68.834C65.4033 68.4967 64.8436 68.328 64.1383 68.328C63.4483 68.328 62.9193 68.4583 62.5513 68.719C62.1833 68.9797 61.9993 69.3247 61.9993 69.754C61.9993 70.0913 62.122 70.375 62.3673 70.605C62.6126 70.835 62.9116 71.019 63.2643 71.157C63.617 71.2797 64.1383 71.4407 64.8283 71.64C65.7483 71.8853 66.4996 72.1383 67.0823 72.399C67.6803 72.6443 68.194 73.0123 68.6233 73.503C69.0526 73.9937 69.275 74.6453 69.2903 75.458C69.2903 76.1787 69.091 76.8227 68.6923 77.39C68.2936 77.9573 67.7263 78.402 66.9903 78.724C66.2696 79.046 65.4186 79.207 64.4373 79.207Z" fill="#29A867"/>
</svg>
