<svg width="51" height="51" viewBox="0 0 51 51" fill="none" xmlns="http://www.w3.org/2000/svg">
<path d="M38.1075 12.5315C38.0629 12.0033 37.618 11.5986 37.0879 11.6038H29.3385V8.6671C29.3385 3.88028 25.4578 0 20.6714 0C15.8845 0 12.0043 3.88028 12.0043 8.6671V11.6038H4.25486C3.72711 11.6058 3.28658 12.0065 3.2352 12.5315L0.563776 43.2439C0.442293 44.6678 0.923445 46.0778 1.89093 47.1306C2.85801 48.1829 4.2222 48.7815 5.65171 48.7803H35.701C37.1305 48.7815 38.4947 48.1829 39.4618 47.1306C40.4292 46.0778 40.9108 44.6678 40.7893 43.2439L38.1075 12.5315ZM14.0436 8.6671C14.0436 5.00669 17.011 2.03932 20.6714 2.03932C24.3318 2.03932 27.2992 5.00669 27.2992 8.6671V11.6038H14.0436V8.6671ZM37.9546 45.752C37.3778 46.3869 36.5585 46.7466 35.701 46.741H5.64136C4.78381 46.7414 3.96569 46.3817 3.38576 45.75C2.80623 45.1179 2.51825 44.2715 2.59274 43.4172L5.18251 13.6431H12.0043V20.0056C10.3644 20.5103 9.34041 22.1382 9.59572 23.8349C9.85064 25.5313 11.3084 26.786 13.0239 26.786C14.7394 26.786 16.1968 25.5313 16.4521 23.8349C16.707 22.1382 15.683 20.5103 14.0436 20.0056V13.6328H27.2992V20.0056C25.6593 20.5103 24.6353 22.1382 24.8906 23.8349C25.1455 25.5313 26.6033 26.786 28.3188 26.786C30.0343 26.786 31.4917 25.5313 31.747 23.8349C32.0019 22.1382 30.9779 20.5103 29.3385 20.0056V13.6328H36.1499L38.7396 43.4068C38.8233 44.2648 38.5377 45.1175 37.9546 45.752V45.752ZM12.871 21.9024C12.9725 21.9159 13.0753 21.9159 13.1769 21.9024C13.9309 21.9836 14.4901 22.6408 14.4495 23.398C14.4084 24.1556 13.7823 24.749 13.0239 24.749C12.2652 24.749 11.639 24.1556 11.5984 23.398C11.5578 22.6408 12.1166 21.9836 12.871 21.9024ZM28.1659 21.9024C28.2674 21.9159 28.3702 21.9159 28.4718 21.9024C29.2257 21.9836 29.785 22.6408 29.7443 23.398C29.7033 24.1556 29.0772 24.749 28.3188 24.749C27.56 24.749 26.9339 24.1556 26.8933 23.398C26.8527 22.6408 27.4115 21.9836 28.1659 21.9024V21.9024Z" fill="black"/>
<path d="M6.407 35.942C6.407 35.3333 6.53167 34.7943 6.781 34.325C7.03767 33.8557 7.38233 33.4927 7.815 33.236C8.255 32.972 8.739 32.84 9.267 32.84C9.74367 32.84 10.158 32.9353 10.51 33.126C10.8693 33.3093 11.1553 33.5403 11.368 33.819V32.939H12.633V39H11.368V38.098C11.1553 38.384 10.8657 38.6223 10.499 38.813C10.1323 39.0037 9.71433 39.099 9.245 39.099C8.72433 39.099 8.24767 38.967 7.815 38.703C7.38233 38.4317 7.03767 38.0577 6.781 37.581C6.53167 37.097 6.407 36.5507 6.407 35.942ZM11.368 35.964C11.368 35.546 11.28 35.183 11.104 34.875C10.9353 34.567 10.7117 34.3323 10.433 34.171C10.1543 34.0097 9.85367 33.929 9.531 33.929C9.20833 33.929 8.90767 34.0097 8.629 34.171C8.35033 34.325 8.123 34.556 7.947 34.864C7.77833 35.1647 7.694 35.524 7.694 35.942C7.694 36.36 7.77833 36.7267 7.947 37.042C8.123 37.3573 8.35033 37.5993 8.629 37.768C8.915 37.9293 9.21567 38.01 9.531 38.01C9.85367 38.01 10.1543 37.9293 10.433 37.768C10.7117 37.6067 10.9353 37.372 11.104 37.064C11.28 36.7487 11.368 36.382 11.368 35.964ZM17.3381 32.84C17.8147 32.84 18.2401 32.939 18.6141 33.137C18.9954 33.335 19.2924 33.6283 19.5051 34.017C19.7177 34.4057 19.8241 34.875 19.8241 35.425V39H18.5811V35.612C18.5811 35.0693 18.4454 34.655 18.1741 34.369C17.9027 34.0757 17.5324 33.929 17.0631 33.929C16.5937 33.929 16.2197 34.0757 15.9411 34.369C15.6697 34.655 15.5341 35.0693 15.5341 35.612V39H14.2801V32.939H15.5341V33.632C15.7394 33.3827 15.9997 33.1883 16.3151 33.049C16.6377 32.9097 16.9787 32.84 17.3381 32.84ZM21.0056 35.942C21.0056 35.3333 21.1303 34.7943 21.3796 34.325C21.6363 33.8557 21.981 33.4927 22.4136 33.236C22.8536 32.972 23.3376 32.84 23.8656 32.84C24.3423 32.84 24.7566 32.9353 25.1086 33.126C25.468 33.3093 25.754 33.5403 25.9666 33.819V32.939H27.2316V39H25.9666V38.098C25.754 38.384 25.4643 38.6223 25.0976 38.813C24.731 39.0037 24.313 39.099 23.8436 39.099C23.323 39.099 22.8463 38.967 22.4136 38.703C21.981 38.4317 21.6363 38.0577 21.3796 37.581C21.1303 37.097 21.0056 36.5507 21.0056 35.942ZM25.9666 35.964C25.9666 35.546 25.8786 35.183 25.7026 34.875C25.534 34.567 25.3103 34.3323 25.0316 34.171C24.753 34.0097 24.4523 33.929 24.1296 33.929C23.807 33.929 23.5063 34.0097 23.2276 34.171C22.949 34.325 22.7216 34.556 22.5456 34.864C22.377 35.1647 22.2926 35.524 22.2926 35.942C22.2926 36.36 22.377 36.7267 22.5456 37.042C22.7216 37.3573 22.949 37.5993 23.2276 37.768C23.5136 37.9293 23.8143 38.01 24.1296 38.01C24.4523 38.01 24.753 37.9293 25.0316 37.768C25.3103 37.6067 25.534 37.372 25.7026 37.064C25.8786 36.7487 25.9666 36.382 25.9666 35.964ZM31.0787 39.099C30.602 39.099 30.173 39.0147 29.7917 38.846C29.4177 38.67 29.1207 38.4353 28.9007 38.142C28.6807 37.8413 28.5634 37.5077 28.5487 37.141H29.8467C29.8687 37.3977 29.9897 37.614 30.2097 37.79C30.437 37.9587 30.7194 38.043 31.0567 38.043C31.4087 38.043 31.68 37.977 31.8707 37.845C32.0687 37.7057 32.1677 37.5297 32.1677 37.317C32.1677 37.0897 32.0577 36.921 31.8377 36.811C31.625 36.701 31.284 36.58 30.8147 36.448C30.36 36.3233 29.9897 36.2023 29.7037 36.085C29.4177 35.9677 29.1684 35.788 28.9557 35.546C28.7504 35.304 28.6477 34.985 28.6477 34.589C28.6477 34.2663 28.743 33.973 28.9337 33.709C29.1244 33.4377 29.3957 33.225 29.7477 33.071C30.107 32.917 30.5177 32.84 30.9797 32.84C31.669 32.84 32.2227 33.016 32.6407 33.368C33.066 33.7127 33.2934 34.1857 33.3227 34.787H32.0687C32.0467 34.5157 31.9367 34.2993 31.7387 34.138C31.5407 33.9767 31.273 33.896 30.9357 33.896C30.6057 33.896 30.3527 33.9583 30.1767 34.083C30.0007 34.2077 29.9127 34.3727 29.9127 34.578C29.9127 34.7393 29.9714 34.875 30.0887 34.985C30.206 35.095 30.349 35.183 30.5177 35.249C30.6864 35.3077 30.9357 35.3847 31.2657 35.48C31.7057 35.5973 32.065 35.7183 32.3437 35.843C32.6297 35.9603 32.8754 36.1363 33.0807 36.371C33.286 36.6057 33.3924 36.9173 33.3997 37.306C33.3997 37.6507 33.3044 37.9587 33.1137 38.23C32.923 38.5013 32.6517 38.714 32.2997 38.868C31.955 39.022 31.548 39.099 31.0787 39.099Z" fill="#29A867"/>
</svg>
